# xmcd
#
# Track frame offsets:
#	180
#	17204
#	34461
#	50712
#	63290
#	80922
#	93760
#	110915
#	126162
#	141986
#	155844
#	167438
#	182992
#	198415
#	212861
#
# Disc length: 3035
#
# Revision: 4
# Processed by: cddbd v1.5.1PL0 Copyright (c) Steve Scherf et al.
# Submitted via: FreeRIP 2.70 
# Normalized: r3:DSETVAR1,TDELIM( - )
#
DISCID=e60bd90f
DTITLE=Various Artist - PROMO ONLY FEB. 1996 COUNTRY RADIO
DYEAR=1996
DGENRE=Country
TTITLE0=Shania Twain - You Win My Love
TTITLE1=Toby Keith - Blue Moon
TTITLE2=Faith Hill - Someone Else's Dream
TTITLE3=Dwight Yoakam - Gone (That'll Be Mine)
TTITLE4=Terri Clark - If I Were You
TTITLE5=Jeff Carson - Holdin' On To Something
TTITLE6=Pam Tillis - The River And The Highway
TTITLE7=Ty England - Redneck Son
TTITLE8=Mindy McCready - Ten Thousand Angels
TTITLE9=Steve Azar - Someday
TTITLE10=Rhonda Vincent - What More Do You Want
TTITLE11=Keith Stegall - 1969
TTITLE12=Ricky Scaggs - Back Where You Belong
TTITLE13=Curtis Day - The Truth Is Hard To Swallow
TTITLE14=Blackhawk - Almost A Memory Now
EXTD=
EXTT0=
EXTT1=
EXTT2=
EXTT3=
EXTT4=
EXTT5=
EXTT6=
EXTT7=
EXTT8=
EXTT9=
EXTT10=
EXTT11=
EXTT12=
EXTT13=
EXTT14=
PLAYORDER=
